<mxfile host="app.diagrams.net" modified="2023-11-10T08:06:41.239Z" agent="Mozilla/5.0 (Windows NT 10.0; Win64; x64) AppleWebKit/537.36 (KHTML, like Gecko) Chrome/108.0.0.0 Safari/537.36" etag="998YHEP_trO8ObPNcCHO" version="22.1.0" type="github">
  <diagram id="eR4daZzUK4Ss6GPiXAMF" name="第 1 页">
    <mxGraphModel dx="880" dy="452" grid="1" gridSize="10" guides="1" tooltips="1" connect="1" arrows="1" fold="1" page="1" pageScale="1" pageWidth="1169" pageHeight="827" math="0" shadow="0">
      <root>
        <mxCell id="0" />
        <mxCell id="1" parent="0" />
        <mxCell id="-1w3Umee6D5wrGQVeW5G-29" value="支付系统" style="swimlane;childLayout=stackLayout;resizeParent=1;resizeParentMax=0;startSize=20;html=1;" parent="1" vertex="1">
          <mxGeometry x="230.00000000000045" y="540" width="360" height="480" as="geometry" />
        </mxCell>
        <mxCell id="-1w3Umee6D5wrGQVeW5G-30" value="Lane 1" style="swimlane;startSize=20;html=1;" parent="-1w3Umee6D5wrGQVeW5G-29" vertex="1">
          <mxGeometry y="20" width="120" height="460" as="geometry" />
        </mxCell>
        <mxCell id="-1w3Umee6D5wrGQVeW5G-31" value="业务系统" style="swimlane;startSize=20;html=1;" parent="-1w3Umee6D5wrGQVeW5G-29" vertex="1">
          <mxGeometry x="120" y="20" width="120" height="460" as="geometry" />
        </mxCell>
        <mxCell id="-1w3Umee6D5wrGQVeW5G-32" value="Lane 3" style="swimlane;startSize=20;html=1;" parent="-1w3Umee6D5wrGQVeW5G-29" vertex="1">
          <mxGeometry x="240" y="20" width="120" height="460" as="geometry" />
        </mxCell>
      </root>
    </mxGraphModel>
  </diagram>
</mxfile>
